<mxfile host="app.diagrams.net" modified="2020-11-05T07:00:58.917Z" agent="5.0 (Windows NT 10.0; Win64; x64) AppleWebKit/537.36 (KHTML, like Gecko) Chrome/86.0.4240.183 Safari/537.36" etag="5CZS_2L0Hido4dRsSy5a" version="13.8.9-1" type="github">
  <diagram id="6XDhxOifac0Pjc3NWlIW" name="ページ1">
    <mxGraphModel dx="1141" dy="675" grid="1" gridSize="10" guides="1" tooltips="1" connect="1" arrows="1" fold="1" page="1" pageScale="1" pageWidth="5000" pageHeight="5000" math="0" shadow="0">
      <root>
        <mxCell id="0" />
        <mxCell id="1" parent="0" />
        <mxCell id="8wGtME4sr5ykkYerjH3I-1" value="" style="rounded=0;whiteSpace=wrap;html=1;fillColor=#CCFFCC;" vertex="1" parent="1">
          <mxGeometry x="270" y="140" width="680" height="550" as="geometry" />
        </mxCell>
        <mxCell id="8wGtME4sr5ykkYerjH3I-2" value="&lt;b&gt;利用者&lt;/b&gt;" style="shape=umlActor;verticalLabelPosition=bottom;verticalAlign=top;html=1;outlineConnect=0;fillColor=#FFFFFF;" vertex="1" parent="1">
          <mxGeometry x="180" y="280" width="30" height="60" as="geometry" />
        </mxCell>
        <mxCell id="8wGtME4sr5ykkYerjH3I-3" value="&lt;b&gt;管理者&lt;/b&gt;" style="shape=umlActor;verticalLabelPosition=bottom;verticalAlign=top;html=1;outlineConnect=0;fillColor=#FFFFFF;" vertex="1" parent="1">
          <mxGeometry x="180" y="520" width="30" height="60" as="geometry" />
        </mxCell>
        <mxCell id="8wGtME4sr5ykkYerjH3I-4" value="" style="shape=folder;fontStyle=1;spacingTop=10;tabWidth=90;tabHeight=35;tabPosition=left;html=1;fillColor=#FFFFCC;" vertex="1" parent="1">
          <mxGeometry x="370" y="205" width="430" height="210" as="geometry" />
        </mxCell>
        <mxCell id="8wGtME4sr5ykkYerjH3I-5" value="" style="shape=folder;fontStyle=1;spacingTop=10;tabWidth=90;tabHeight=40;tabPosition=left;html=1;fillColor=#CCFFFF;" vertex="1" parent="1">
          <mxGeometry x="370" y="430" width="430" height="220" as="geometry" />
        </mxCell>
        <mxCell id="8wGtME4sr5ykkYerjH3I-6" value="&lt;b&gt;ノートPCがある&lt;br&gt;フロアを表示&lt;/b&gt;" style="ellipse;whiteSpace=wrap;html=1;fillColor=#FFFFFF;" vertex="1" parent="1">
          <mxGeometry x="390" y="270" width="120" height="80" as="geometry" />
        </mxCell>
        <mxCell id="8wGtME4sr5ykkYerjH3I-7" value="&lt;b&gt;データを受信&lt;/b&gt;" style="ellipse;whiteSpace=wrap;html=1;fillColor=#FFFFFF;" vertex="1" parent="1">
          <mxGeometry x="630" y="270" width="120" height="80" as="geometry" />
        </mxCell>
        <mxCell id="8wGtME4sr5ykkYerjH3I-8" value="使用するルータのお登録" style="ellipse;whiteSpace=wrap;html=1;fillColor=#FFFFFF;fontStyle=1" vertex="1" parent="1">
          <mxGeometry x="390" y="475" width="120" height="80" as="geometry" />
        </mxCell>
        <mxCell id="8wGtME4sr5ykkYerjH3I-9" value="&lt;b&gt;&lt;font style=&quot;font-size: 18px&quot;&gt;一般&lt;/font&gt;&lt;/b&gt;" style="text;html=1;strokeColor=none;fillColor=none;align=center;verticalAlign=middle;whiteSpace=wrap;rounded=0;" vertex="1" parent="1">
          <mxGeometry x="390" y="210" width="50" height="30" as="geometry" />
        </mxCell>
        <mxCell id="8wGtME4sr5ykkYerjH3I-10" value="&lt;span style=&quot;font-size: 18px&quot;&gt;&lt;b&gt;管理&lt;/b&gt;&lt;/span&gt;" style="text;html=1;strokeColor=none;fillColor=none;align=center;verticalAlign=middle;whiteSpace=wrap;rounded=0;" vertex="1" parent="1">
          <mxGeometry x="390" y="440" width="50" height="30" as="geometry" />
        </mxCell>
        <mxCell id="8wGtME4sr5ykkYerjH3I-11" value="&lt;b&gt;ルータ&lt;/b&gt;" style="shape=umlActor;verticalLabelPosition=bottom;verticalAlign=top;html=1;outlineConnect=0;fillColor=#FFFFFF;" vertex="1" parent="1">
          <mxGeometry x="1020" y="280" width="30" height="60" as="geometry" />
        </mxCell>
        <mxCell id="8wGtME4sr5ykkYerjH3I-18" value="管理する&lt;br&gt;コンピュータ名&lt;br&gt;を登録" style="ellipse;whiteSpace=wrap;html=1;fillColor=#FFFFFF;fontStyle=1" vertex="1" parent="1">
          <mxGeometry x="390" y="560" width="120" height="80" as="geometry" />
        </mxCell>
        <mxCell id="8wGtME4sr5ykkYerjH3I-19" value="&lt;b&gt;&lt;font style=&quot;font-size: 18px&quot;&gt;Wi-Fiによる測位システム&lt;/font&gt;&lt;/b&gt;" style="text;html=1;strokeColor=none;fillColor=none;align=center;verticalAlign=middle;whiteSpace=wrap;rounded=0;" vertex="1" parent="1">
          <mxGeometry x="300" y="150" width="210" height="40" as="geometry" />
        </mxCell>
        <mxCell id="8wGtME4sr5ykkYerjH3I-21" value="" style="endArrow=none;html=1;exitX=0.5;exitY=0.5;exitDx=0;exitDy=0;exitPerimeter=0;entryX=0;entryY=0.5;entryDx=0;entryDy=0;" edge="1" parent="1" source="8wGtME4sr5ykkYerjH3I-3" target="8wGtME4sr5ykkYerjH3I-8">
          <mxGeometry width="50" height="50" relative="1" as="geometry">
            <mxPoint x="750" y="490" as="sourcePoint" />
            <mxPoint x="800" y="440" as="targetPoint" />
          </mxGeometry>
        </mxCell>
        <mxCell id="8wGtME4sr5ykkYerjH3I-22" value="" style="endArrow=none;html=1;exitX=0.5;exitY=0.5;exitDx=0;exitDy=0;exitPerimeter=0;entryX=0;entryY=0.5;entryDx=0;entryDy=0;" edge="1" parent="1" source="8wGtME4sr5ykkYerjH3I-3" target="8wGtME4sr5ykkYerjH3I-18">
          <mxGeometry width="50" height="50" relative="1" as="geometry">
            <mxPoint x="750" y="490" as="sourcePoint" />
            <mxPoint x="800" y="440" as="targetPoint" />
          </mxGeometry>
        </mxCell>
        <mxCell id="8wGtME4sr5ykkYerjH3I-23" value="" style="endArrow=none;html=1;exitX=1;exitY=0.5;exitDx=0;exitDy=0;" edge="1" parent="1" source="8wGtME4sr5ykkYerjH3I-7" target="8wGtME4sr5ykkYerjH3I-11">
          <mxGeometry width="50" height="50" relative="1" as="geometry">
            <mxPoint x="750" y="490" as="sourcePoint" />
            <mxPoint x="800" y="440" as="targetPoint" />
          </mxGeometry>
        </mxCell>
        <mxCell id="8wGtME4sr5ykkYerjH3I-25" value="" style="endArrow=none;html=1;exitX=0;exitY=0.5;exitDx=0;exitDy=0;" edge="1" parent="1" source="8wGtME4sr5ykkYerjH3I-6" target="8wGtME4sr5ykkYerjH3I-2">
          <mxGeometry width="50" height="50" relative="1" as="geometry">
            <mxPoint x="750" y="490" as="sourcePoint" />
            <mxPoint x="800" y="440" as="targetPoint" />
          </mxGeometry>
        </mxCell>
        <mxCell id="8wGtME4sr5ykkYerjH3I-33" value="" style="edgeStyle=orthogonalEdgeStyle;rounded=0;orthogonalLoop=1;jettySize=auto;html=1;" edge="1" parent="1" source="8wGtME4sr5ykkYerjH3I-28">
          <mxGeometry relative="1" as="geometry">
            <mxPoint x="905" y="840" as="targetPoint" />
          </mxGeometry>
        </mxCell>
      </root>
    </mxGraphModel>
  </diagram>
</mxfile>
